<?xml version="1.0" encoding="utf-8"?>
<!-- Generator: Adobe Illustrator 16.0.0, SVG Export Plug-In . SVG Version: 6.00 Build 0)  -->
<!DOCTYPE svg PUBLIC "-//W3C//DTD SVG 1.1//EN" "http://www.w3.org/Graphics/SVG/1.1/DTD/svg11.dtd">
<svg version="1.1" id="Ebene_1" xmlns="http://www.w3.org/2000/svg" xmlns:xlink="http://www.w3.org/1999/xlink" x="0px" y="0px"
	 width="352.75px" height="42.25px" viewBox="0 0 352.75 42.25" enable-background="new 0 0 352.75 42.25" xml:space="preserve">
<g>
	<path fill="#8E8E8E" stroke="#1F1E21" stroke-width="0.11" stroke-miterlimit="10" d="M174.055,35.912H173.6l-1.964,3.662
		l-1.942-3.662h-0.436l2.177,4.14h0.401L174.055,35.912z M168.264,40.052l-1.965-2.244l1.68-1.9h-0.552l-1.388,1.6l-1.425-1.6
		h-0.516l1.674,1.9l-1.965,2.244h0.534l1.699-1.934l1.692,1.934H168.264z M162.034,40.052v-4.145h-0.395l-1.85,2.828l-1.826-2.828
		h-0.406v4.145h0.406v-3.4l1.826,2.817l1.832-2.817v3.4H162.034z M155.328,40.052v-4.145h-0.394l-1.851,2.828l-1.826-2.828h-0.407
		v4.145h0.407v-3.4l1.826,2.817l1.832-2.817v3.4H155.328z M147.775,39.797c0-0.195-0.175-0.357-0.394-0.357
		c-0.212,0-0.382,0.162-0.382,0.357c0,0.194,0.176,0.349,0.388,0.349C147.594,40.146,147.775,39.991,147.775,39.797 M146.769,36.285
		v-0.378h-3.857v0.378h1.734v3.767h0.413v-3.767H146.769z M141.645,38.862c0-0.706-0.642-1.095-1.401-1.149
		c-0.333-0.022-0.873-0.022-1.23-0.034c-0.443-0.011-1.038-0.115-1.038-0.627c0-0.461,0.528-0.717,0.952-0.805
		c0.195-0.046,0.389-0.057,0.582-0.057c0.674,0,1.068,0.184,1.62,0.505l0.255-0.283c-0.558-0.383-1.098-0.593-1.802-0.593
		c-0.285,0-0.576,0.027-0.855,0.1c-0.594,0.149-1.165,0.516-1.165,1.138c0,0.74,0.765,0.989,1.45,1c0.346,0.005,0.946,0,1.194,0.022
		c0.419,0.034,1.02,0.249,1.02,0.788c0,0.751-1.129,0.896-1.735,0.896c-0.825,0-1.389-0.194-1.971-0.739l-0.285,0.273
		c0.346,0.31,0.606,0.521,1.067,0.672c0.371,0.122,0.758,0.177,1.153,0.177C140.329,40.146,141.645,39.879,141.645,38.862
		 M135.919,40.052v-0.379h-3.469v-1.571h1.813v-0.378h-1.813v-1.423h3.324v-0.389h-3.73v4.14H135.919z"/>
	<path fill="#8E8E8E" stroke="#1F1E21" stroke-width="0.1" stroke-miterlimit="10" d="M163.271,4.182h-1.928l0.967-1.816
		L163.271,4.182z M164.718,6.042l-2.201-4.155h-0.419l-2.22,4.155h0.462l0.796-1.481h2.323l0.796,1.481H164.718z M158.372,6.042
		V1.887h-0.395l-1.854,2.835l-1.831-2.835h-0.408v4.155h0.408V2.633l1.831,2.824l1.836-2.824v3.408H158.372z M151.822,3.981
		c0,1.046-0.918,1.771-2.03,1.771c-1.138,0-2.032-0.746-2.032-1.805c0-1.036,0.95-1.771,2.043-1.771
		C150.922,2.177,151.822,2.945,151.822,3.981 M152.236,3.97c0-1.265-1.107-2.167-2.457-2.167c-1.327,0-2.427,0.92-2.427,2.156
		c0,1.264,1.1,2.172,2.457,2.172C151.147,6.131,152.236,5.218,152.236,3.97 M145.312,3.068c0,0.255-0.115,0.534-0.346,0.69
		c-0.182,0.122-0.396,0.15-0.875,0.15h-2.061V2.271h2.061c0.523,0,0.688,0.039,0.845,0.128
		C145.197,2.544,145.312,2.795,145.312,3.068 M145.726,3.084c0-0.362-0.219-0.841-0.596-1.03c-0.267-0.134-0.401-0.168-0.857-0.168
		h-2.67v4.155h0.426V4.288h1.976l1.144,1.754h0.48l-1.149-1.754c0.165-0.011,0.498-0.073,0.742-0.228
		C145.537,3.854,145.726,3.436,145.726,3.084"/>
	<path fill="#8E8E8E" d="M349.861,20.809c0,4.178-3.355,7.065-7.421,7.065c-4.156,0-7.421-2.978-7.421-7.199
		c0-4.134,3.466-7.067,7.466-7.067C346.574,13.608,349.861,16.675,349.861,20.809 M351.373,20.764c0-5.044-4.044-8.644-8.978-8.644
		c-4.844,0-8.865,3.667-8.865,8.6c0,5.043,4.021,8.666,8.976,8.666C347.396,29.385,351.373,25.742,351.373,20.764 M329.978,29.029
		V12.475h-1.512v14.133l-11.688-14.133h-1.512v16.554h1.512V14.853l11.665,14.177H329.978z M310.558,12.475h-1.466v16.554h1.466
		V12.475z M304.702,26.007l-1.045-1.11c-1.978,1.823-4.222,2.978-6.955,2.978c-4.088,0-7.509-2.91-7.509-7.11
		c0-4.4,3.398-7.155,7.643-7.155c2.733,0,4.866,0.844,6.778,2.8l1.022-1.089c-2.244-2.31-4.733-3.222-7.935-3.222
		c-5.043,0-9.021,3.511-9.021,8.667c0,5.021,4,8.644,8.933,8.644C299.836,29.407,302.37,28.186,304.702,26.007 M283.515,12.475
		h-1.467v16.554h1.467V12.475z M278.82,12.475h-1.668l-7.199,14.644l-7.11-14.644h-1.6l7.976,16.554h1.468L278.82,12.475z
		 M257.193,21.608h-7.044l3.532-7.245L257.193,21.608z M262.482,29.029l-8.045-16.577h-1.532l-8.111,16.577h1.688l2.911-5.91h8.489
		l2.91,5.91H262.482z M242.358,29.029v-1.532h-10.821V12.475h-1.512v16.554H242.358z M226.762,29.029v-1.532H215.94V12.475h-1.511
		v16.554H226.762z M206.199,21.608h-7.045l3.534-7.245L206.199,21.608z M211.487,29.029l-8.043-16.577h-1.534l-8.111,16.577h1.69
		l2.909-5.91h8.489l2.911,5.91H211.487z M191.854,17.208c0,1.022-0.356,2.178-1.267,2.733c-0.533,0.333-1.356,0.467-2.778,0.467
		h-7.332v-6.422h8.065C190.698,13.986,191.854,15.03,191.854,17.208 M193.386,17.252c0-1.4-0.488-2.822-1.555-3.755
		c-1-0.889-2-1.022-3.289-1.022h-9.6v16.554h1.534v-7.088h7.332c1.311,0,2.912-0.178,3.733-0.8
		C192.764,20.208,193.386,18.742,193.386,17.252"/>
	<path fill="#8E8E8E" d="M125.929,17.164c0,1.021-0.422,2.133-1.267,2.755c-0.667,0.489-1.445,0.6-3.2,0.6h-7.533v-6.533h7.533
		c1.912,0,2.511,0.155,3.089,0.511C125.507,15.075,125.929,16.075,125.929,17.164 M127.44,17.23c0-1.444-0.801-3.355-2.178-4.111
		c-0.978-0.534-1.466-0.667-3.133-0.667h-9.755v16.577h1.555v-7h7.223l4.177,7h1.756l-4.199-7c0.6-0.043,1.821-0.287,2.71-0.911
		C126.751,20.297,127.44,18.63,127.44,17.23 M108.39,29.029v-1.511H95.679V21.23h6.644v-1.511h-6.644V14.03h12.177v-1.555H94.19
		v16.554H108.39z M88.942,29.029V12.475h-1.511v14.133L75.742,12.475h-1.511v16.554h1.511V14.853l11.667,14.177H88.942z
		 M70.28,13.964v-1.511H56.147v1.511h6.355v15.065h1.511V13.964H70.28z M54.15,24.274c0-2.822-2.355-4.377-5.132-4.599
		c-1.223-0.089-3.2-0.089-4.511-0.134c-1.623-0.045-3.8-0.467-3.8-2.511c0-1.844,1.933-2.866,3.488-3.222
		c0.711-0.178,1.422-0.223,2.134-0.223c2.466,0,3.911,0.734,5.933,2.022l0.933-1.133c-2.045-1.533-4.022-2.378-6.6-2.378
		c-1.045,0-2.111,0.111-3.133,0.4c-2.178,0.6-4.267,2.066-4.267,4.555c0,2.955,2.8,3.955,5.312,4c1.267,0.022,3.466,0,4.377,0.089
		c1.533,0.134,3.733,1,3.733,3.156c0,3-4.134,3.577-6.355,3.577c-3.022,0-5.088-0.777-7.222-2.955l-1.044,1.088
		c1.266,1.244,2.222,2.09,3.911,2.689c1.355,0.489,2.777,0.711,4.222,0.711C49.329,29.407,54.15,28.342,54.15,24.274 M31.248,21.608
		h-7.044l3.533-7.245L31.248,21.608z M36.536,29.029l-8.044-16.577h-1.534l-8.11,16.577h1.688l2.911-5.91h8.488l2.912,5.91H36.536z
		 M16.061,29.029l-6.955-10.51l6.066-6.044h-2.111L2.906,22.563V12.475H1.373v16.554h1.533v-4.332l5.067-5.045l6.267,9.377H16.061z"
		/>
	<g>
		<path fill="#8E8E8E" d="M161.732,29.059h-17.048v-1.505h17.048V29.059z M145.095,28.646h16.225v-0.682h-16.225V28.646z"/>
	</g>
	<path fill="#8E8E8E" d="M156.861,13.096c-0.716-0.716-1.322-1.141-2.297-1.198c-0.439-0.033-0.88,0.037-1.325,0.198l-0.007-0.003
		l-0.013,0.005c-0.443-0.162-0.9-0.224-1.34-0.201c-0.979,0.058-1.584,0.483-2.299,1.199l-4.968,4.968l8.462,8.463l0.146,0.145
		l8.608-8.607L156.861,13.096z M145.195,18.063l4.677-4.677c0.661-0.661,1.181-1.028,2.034-1.079
		c0.396-0.021,0.796,0.036,1.19,0.183l0.056,0.021c0.436,0.171,0.857,0.447,1.216,0.795l0.047,0.046
		c0.633,0.633,0.995,1.476,0.994,2.311c0,0.131-0.009,0.263-0.026,0.395c-0.074,0.543-0.581,1.321-1.392,2.137l-0.479-0.479
		c0.12-0.121,0.213-0.225,0.313-0.333c0.051-0.055,0.113-0.117,0.159-0.17c0.111-0.125,0.198-0.239,0.281-0.352
		c0.022-0.03,0.053-0.063,0.073-0.092c0.084-0.12,0.147-0.231,0.204-0.339c0.009-0.018,0.024-0.038,0.032-0.055
		c0.06-0.125,0.103-0.244,0.13-0.362c0.172-0.711-0.124-1.535-0.792-2.204c-0.112-0.112-0.229-0.214-0.356-0.31l0.011-0.009
		l-0.255-0.162l-0.101-0.064l-0.003,0.002c-0.013-0.008-0.027-0.016-0.04-0.023c-0.34-0.19-0.683-0.287-1.021-0.288
		c-0.071,0-0.142,0.005-0.211,0.013c-0.016,0.001-0.031,0.004-0.046,0.006c-0.52,0.076-1.042,0.372-1.55,0.879l-4.199,4.198
		l3.518,3.517l2.79-2.79l0.479,0.478l-2.791,2.791l3.082,3.082l3.082-3.082l-3.829-3.829c-0.824-0.825-1.34-1.613-1.416-2.16
		c-0.018-0.132-0.026-0.264-0.026-0.396c0-0.826,0.354-1.658,0.973-2.289c0.015-0.001,0.03-0.003,0.046-0.004
		c0.245-0.021,0.509,0.033,0.783,0.162c-0.103,0.084-0.205,0.176-0.305,0.276c-0.668,0.668-0.964,1.492-0.792,2.202
		c0.027,0.118,0.07,0.238,0.13,0.364c0.013,0.027,0.037,0.059,0.052,0.086c0.053,0.1,0.107,0.199,0.183,0.307
		c0.031,0.043,0.076,0.095,0.111,0.14c0.075,0.099,0.147,0.196,0.243,0.305c0.056,0.063,0.13,0.138,0.193,0.206
		c0.092,0.098,0.174,0.191,0.281,0.298l0.011,0.011c0.004,0.004,0.009,0.009,0.013,0.013l0.267,0.267l3.562,3.562l3.517-3.517
		l-4.198-4.198c-0.482-0.482-0.978-0.774-1.471-0.866c-0.256-0.245-0.54-0.456-0.838-0.625c0.251-0.054,0.491-0.076,0.746-0.055
		c0.851,0.049,1.371,0.417,2.032,1.078l4.677,4.677l-8.026,8.025L145.195,18.063z M155.185,13.645
		c0.207,0.125,0.416,0.292,0.625,0.501l3.907,3.907l-2.935,2.935l-2.5-2.5c0.524-0.527,1.391-1.515,1.509-2.373
		c0.021-0.151,0.03-0.301,0.03-0.45C155.822,14.96,155.596,14.254,155.185,13.645z M152.819,14.101
		c0.13-0.13,0.263-0.244,0.396-0.342c0.15,0.105,0.282,0.216,0.408,0.342c0.211,0.212,0.887,0.97,0.682,1.817
		c-0.089,0.384-0.414,0.836-1.083,1.508c-0.67-0.673-0.995-1.125-1.084-1.51C151.932,15.071,152.607,14.313,152.819,14.101z
		 M150.65,16.116c0.119,0.857,0.986,1.845,1.51,2.372l-2.5,2.5l-2.936-2.935l3.908-3.907c0.208-0.208,0.417-0.375,0.624-0.5
		c-0.409,0.608-0.636,1.315-0.636,2.019C150.62,15.813,150.63,15.964,150.65,16.116z M153.221,19.549l2.5,2.5l-2.5,2.5l-2.5-2.5
		L153.221,19.549z"/>
</g>
</svg>
