<?xml version="1.0" encoding="utf-8"?>
<!-- Generator: Adobe Illustrator 16.0.0, SVG Export Plug-In . SVG Version: 6.00 Build 0)  -->
<!DOCTYPE svg PUBLIC "-//W3C//DTD SVG 1.1//EN" "http://www.w3.org/Graphics/SVG/1.1/DTD/svg11.dtd">
<svg version="1.1" id="Livello_1" xmlns="http://www.w3.org/2000/svg" xmlns:xlink="http://www.w3.org/1999/xlink" x="0px" y="0px"
	 width="12px" height="22px" viewBox="0 0 12 22" enable-background="new 0 0 12 22" xml:space="preserve">
<g>
	<path fill="#1F1E21" d="M11.1025391,0.5v3.4736328H8.6347656c-0.3710938,0-0.6738281,0.1245117-0.9003906,0.3696289
		C7.2412109,4.8769531,7.3027344,5.8208008,7.3212891,6.0166016l0.0019531,1.6494141l0.0009766,0.4995117h0.4990234h3.4951172
		l-0.8505859,2.7080078H7.8242188h-0.5v0.5V21.5H3.0854492c0.003418-1.074707,0.0195312-5.7734375,0.03125-10.125
		l0.0014648-0.5014648H2.6166992H0.5V8.1655273h2.1269531h0.4985352l0.0014648-0.4985352l0.0024414-0.8168945l0.0004883-0.246582
		c0.003418-1.1347656,0.0058594-2.0625,0.0058594-2.6416016C3.1357422,0.5395508,6.5976562,0.5,6.7451172,0.5H11.1025391
		 M11.6025391,0H6.7451172c-1.4213867,0-4.109375,0.828125-4.109375,3.9619141c0,0.6201172-0.0029297,1.640625-0.0063477,2.8867188
		L2.6269531,7.6655273H0v3.7080078h2.6166992c-0.0131836,4.9516602-0.0322266,10.3520508-0.0322266,10.3520508L2.5834961,22
		h5.2407227V11.3735352h3.0107422L12,7.6655273H7.8232422l-0.0019531-1.675293
		C7.7910156,5.7441406,7.7822266,5.0283203,8.1015625,4.6826172C8.2314453,4.5419922,8.40625,4.4736328,8.6347656,4.4736328
		h2.9677734V0L11.6025391,0z"/>
</g>
</svg>
