<?xml version="1.0" encoding="utf-8"?>
<!-- Generator: Adobe Illustrator 16.0.0, SVG Export Plug-In . SVG Version: 6.00 Build 0)  -->
<!DOCTYPE svg PUBLIC "-//W3C//DTD SVG 1.1//EN" "http://www.w3.org/Graphics/SVG/1.1/DTD/svg11.dtd">
<svg version="1.1" id="Ebene_1" xmlns="http://www.w3.org/2000/svg" xmlns:xlink="http://www.w3.org/1999/xlink" x="0px" y="0px"
	 width="550px" height="65px" viewBox="0 0 550 65" enable-background="new 0 0 550 65" xml:space="preserve">
<g>
	<path stroke="#000000" stroke-width="0.11" stroke-miterlimit="10" d="M271.357,56.554h-0.715l-3.086,5.755l-3.053-5.755h-0.686
		l3.422,6.506h0.629L271.357,56.554z M262.257,63.06l-3.088-3.527l2.639-2.986h-0.867l-2.182,2.514l-2.24-2.514h-0.811l2.631,2.986
		l-3.088,3.527h0.84l2.668-3.04l2.66,3.04H262.257z M252.467,63.06v-6.514h-0.62l-2.907,4.444l-2.869-4.444h-0.638v6.514h0.638
		v-5.344l2.869,4.427l2.879-4.427v5.344H252.467z M241.929,63.06v-6.514h-0.619l-2.908,4.444l-2.869-4.444h-0.639v6.514h0.639
		v-5.344l2.869,4.427l2.879-4.427v5.344H241.929z M230.061,62.657c0-0.306-0.275-0.561-0.619-0.561c-0.333,0-0.6,0.255-0.6,0.561
		s0.276,0.549,0.61,0.549C229.775,63.206,230.061,62.963,230.061,62.657 M228.479,57.14v-0.594h-6.062v0.594h2.725v5.92h0.649v-5.92
		H228.479z M220.428,61.189c0-1.109-1.01-1.721-2.202-1.807c-0.523-0.035-1.372-0.035-1.934-0.053
		c-0.696-0.018-1.631-0.182-1.631-0.985c0-0.725,0.83-1.127,1.497-1.266c0.306-0.07,0.61-0.088,0.915-0.088
		c1.059,0,1.678,0.287,2.545,0.793l0.4-0.444c-0.876-0.602-1.724-0.933-2.831-0.933c-0.447,0-0.906,0.043-1.344,0.156
		c-0.934,0.235-1.831,0.812-1.831,1.789c0,1.162,1.202,1.554,2.279,1.571c0.543,0.008,1.486,0,1.877,0.035
		c0.658,0.054,1.602,0.392,1.602,1.238c0,1.18-1.773,1.407-2.726,1.407c-1.296,0-2.183-0.306-3.097-1.162l-0.448,0.43
		c0.543,0.487,0.952,0.818,1.677,1.056c0.583,0.192,1.191,0.278,1.812,0.278C218.359,63.206,220.428,62.786,220.428,61.189
		 M211.43,63.06v-0.597h-5.452v-2.468h2.85v-0.594h-2.85v-2.236h5.224v-0.611h-5.863v6.506H211.43z"/>
	<path stroke="#000000" stroke-width="0.1" stroke-miterlimit="10" d="M254.412,6.691h-3.029l1.52-2.854L254.412,6.691z
		 M256.685,9.614l-3.458-6.529h-0.659l-3.488,6.529h0.726l1.252-2.328h3.649l1.252,2.328H256.685z M246.712,9.614V3.085h-0.621
		l-2.914,4.455l-2.876-4.455h-0.64v6.529h0.64V4.259l2.876,4.438l2.885-4.438v5.355H246.712z M236.419,6.377
		c0,1.645-1.442,2.783-3.19,2.783c-1.788,0-3.192-1.173-3.192-2.836c0-1.629,1.492-2.783,3.211-2.783
		C235.006,3.541,236.419,4.749,236.419,6.377 M237.07,6.359c0-1.987-1.74-3.405-3.86-3.405c-2.084,0-3.814,1.444-3.814,3.388
		c0,1.987,1.729,3.413,3.862,3.413C235.36,9.755,237.07,8.319,237.07,6.359 M226.19,4.942c0,0.401-0.181,0.838-0.544,1.085
		c-0.286,0.191-0.622,0.236-1.376,0.236h-3.239V3.688h3.239c0.822,0,1.08,0.062,1.328,0.202C226.01,4.118,226.19,4.513,226.19,4.942
		 M226.841,4.967c0-0.568-0.344-1.321-0.938-1.618c-0.419-0.211-0.63-0.264-1.347-0.264h-4.195v6.529h0.669V6.858h3.105l1.796,2.756
		h0.755l-1.807-2.756c0.259-0.018,0.783-0.115,1.166-0.359C226.544,6.176,226.841,5.52,226.841,4.967"/>
	<path d="M547.625,32.819c0,6.564-5.271,11.103-11.662,11.103c-6.529,0-11.662-4.679-11.662-11.312
		c0-6.496,5.447-11.105,11.734-11.105C542.458,21.505,547.625,26.324,547.625,32.819 M550,32.749
		c0-7.927-6.354-13.583-14.107-13.583c-7.611,0-13.93,5.761-13.93,13.514c0,7.925,6.318,13.617,14.104,13.617
		C543.75,46.297,550,40.571,550,32.749 M516.378,45.738V19.724h-2.375v22.21l-18.367-22.21h-2.375v26.015h2.375V23.461
		l18.332,22.277H516.378z M485.863,19.724h-2.305v26.015h2.305V19.724z M476.662,40.988l-1.643-1.745
		c-3.107,2.864-6.635,4.679-10.93,4.679c-6.424,0-11.801-4.573-11.801-11.173c0-6.914,5.34-11.244,12.01-11.244
		c4.295,0,7.648,1.326,10.652,4.4l1.605-1.712c-3.525-3.631-7.438-5.063-12.467-5.063c-7.926,0-14.176,5.519-14.176,13.619
		c0,7.891,6.285,13.583,14.037,13.583C469.013,46.332,472.996,44.412,476.662,40.988 M443.365,19.724h-2.303v26.015h2.303V19.724z
		 M435.988,19.724h-2.619l-11.314,23.013L410.88,19.724h-2.514L420.9,45.738h2.307L435.988,19.724z M402.003,34.076h-11.068
		l5.551-11.384L402.003,34.076z M410.314,45.738l-12.641-26.05h-2.408l-12.746,26.05h2.652l4.576-9.287h13.34l4.572,9.287H410.314z
		 M378.691,45.738V43.33h-17.004V19.724h-2.375v26.015H378.691z M354.183,45.738V43.33h-17.006V19.724h-2.375v26.015H354.183z
		 M321.871,34.076H310.8l5.553-11.384L321.871,34.076z M330.179,45.738l-12.639-26.05h-2.41l-12.746,26.05h2.654l4.574-9.287h13.338
		l4.576,9.287H330.179z M299.328,27.162c0,1.606-0.561,3.422-1.992,4.295c-0.838,0.523-2.131,0.733-4.365,0.733h-11.521V22.099
		h12.674C297.511,22.099,299.328,23.739,299.328,27.162 M301.734,27.231c0-2.199-0.768-4.435-2.441-5.9
		c-1.572-1.397-3.145-1.607-5.17-1.607h-15.086v26.015h2.412V34.6h11.521c2.059,0,4.576-0.279,5.867-1.257
		C300.757,31.876,301.734,29.572,301.734,27.231"/>
	<path d="M195.73,27.092c0,1.606-0.663,3.353-1.991,4.331c-1.047,0.768-2.27,0.942-5.029,0.942h-11.837V22.099h11.837
		c3.004,0,3.946,0.244,4.854,0.804C195.067,23.811,195.73,25.381,195.73,27.092 M198.105,27.197c0-2.271-1.258-5.272-3.423-6.46
		c-1.536-0.839-2.304-1.049-4.923-1.049h-15.329v26.05h2.443v-11h11.35l6.564,11h2.759l-6.599-11
		c0.942-0.068,2.862-0.452,4.26-1.431C197.023,32.017,198.105,29.396,198.105,27.197 M168.169,45.738v-2.375h-19.974v-9.881h10.44
		v-2.374h-10.44v-8.94h19.135v-2.444h-21.475v26.015H168.169z M137.608,45.738V19.724h-2.374v22.21l-18.368-22.21h-2.375v26.015
		h2.375V23.461l18.333,22.277H137.608z M108.283,22.063v-2.375H86.074v2.375h9.987v23.675h2.375V22.063H108.283z M82.936,38.265
		c0-4.434-3.701-6.878-8.066-7.227c-1.921-0.14-5.029-0.14-7.089-0.209c-2.549-0.071-5.971-0.734-5.971-3.946
		c0-2.898,3.038-4.505,5.482-5.063c1.118-0.279,2.234-0.35,3.353-0.35c3.875,0,6.146,1.153,9.324,3.179l1.466-1.781
		c-3.213-2.409-6.321-3.737-10.371-3.737c-1.643,0-3.317,0.175-4.924,0.63c-3.422,0.942-6.705,3.247-6.705,7.158
		c0,4.644,4.4,6.215,8.346,6.284c1.991,0.035,5.447,0,6.879,0.141c2.409,0.21,5.866,1.569,5.866,4.958
		c0,4.714-6.495,5.621-9.987,5.621c-4.75,0-7.996-1.221-11.349-4.644l-1.641,1.71c1.99,1.956,3.492,3.284,6.146,4.227
		c2.13,0.769,4.365,1.117,6.635,1.117C75.359,46.332,82.936,44.657,82.936,38.265 M46.945,34.076H35.876l5.552-11.384L46.945,34.076
		z M55.256,45.738l-12.641-26.05h-2.41L27.46,45.738h2.653l4.575-9.287h13.338l4.575,9.287H55.256z M23.081,45.738L12.152,29.222
		l9.533-9.498h-3.317L2.409,35.577V19.724H0v26.015h2.409V38.93l7.962-7.927l9.848,14.735H23.081z"/>
	
		<rect x="225.526" y="43.742" fill="none" stroke="#000000" stroke-width="0.25" stroke-miterlimit="10" width="26.143" height="1.718"/>
	<g>
		<path fill="none" stroke="#000000" stroke-width="0.25" stroke-miterlimit="10" d="M238.618,27.964l0.193-0.193
			c1.123-1.123,1.666-1.877,1.825-2.562c0.28-1.158-0.353-2.351-1.158-3.158c-0.965-0.965-1.937-1.36-2.903-1.221
			c-0.755,0.11-1.508,0.546-2.254,1.291l-6.369,6.368l5.071,5.069l4.368-4.368"/>
		<path fill="none" stroke="#000000" stroke-width="0.25" stroke-miterlimit="10" d="M238.619,19.478l-0.069,0.026
			c0.68-0.276,1.41-0.415,2.158-0.365c1.489,0.088,2.385,0.772,3.403,1.789l7.578,7.578l-12,12l-1.07,1.068l-13.069-13.068
			l7.578-7.578c1.017-1.017,1.913-1.701,3.403-1.789C237.251,19.091,237.958,19.219,238.619,19.478
			c0.753,0.295,1.445,0.758,2.03,1.325c0.024,0.024,0.049,0.049,0.074,0.073c1.175,1.176,1.842,2.823,1.613,4.524
			c-0.157,1.141-1.281,2.545-2.315,3.58l-0.189,0.188 M238.619,30.384l4.385,4.385c0,0-3.604,3.605-4.386,4.386
			c-0.803-0.804-4.386-4.386-4.386-4.386S238.043,30.959,238.619,30.384c-0.022-0.022-1.403-1.403-1.403-1.403
			c-1.035-1.035-2.159-2.439-2.316-3.58c-0.228-1.701,0.439-3.349,1.614-4.524 M238.618,21.342
			c-0.287,0.188-0.572,0.422-0.859,0.709c-0.807,0.808-1.439,2-1.159,3.158c0.159,0.685,0.703,1.438,1.826,2.562l5.788,5.788
			l5.069-5.069l-6.368-6.368c-0.724-0.724-1.454-1.155-2.187-1.28"/>
	</g>
</g>
</svg>
