<?xml version="1.0" encoding="utf-8"?>
<!-- Generator: Adobe Illustrator 16.0.0, SVG Export Plug-In . SVG Version: 6.00 Build 0)  -->
<!DOCTYPE svg PUBLIC "-//W3C//DTD SVG 1.1//EN" "http://www.w3.org/Graphics/SVG/1.1/DTD/svg11.dtd">
<svg version="1.1" id="Ebene_1" xmlns="http://www.w3.org/2000/svg" xmlns:xlink="http://www.w3.org/1999/xlink" x="0px" y="0px"
	 width="677.333px" height="129.667px" viewBox="0 0 677.333 129.667" enable-background="new 0 0 677.333 129.667"
	 xml:space="preserve">
<g>
	<path stroke="#000000" stroke-width="0.11" stroke-miterlimit="10" d="M338.246,91.482h-0.831l-3.587,6.686l-3.546-6.686h-0.795
		l3.974,7.559h0.731L338.246,91.482z M327.673,99.041l-3.588-4.098l3.067-3.471h-1.009l-2.533,2.922l-2.604-2.922h-0.941
		l3.057,3.471l-3.588,4.098h0.975l3.102-3.531l3.088,3.531H327.673z M316.3,99.041v-7.568h-0.721l-3.377,5.164l-3.333-5.164h-0.741
		v7.568h0.741v-6.209l3.333,5.143l3.345-5.143v6.209H316.3z M304.056,99.041v-7.568h-0.719l-3.378,5.164l-3.333-5.164h-0.743v7.568
		h0.743v-6.209l3.333,5.143l3.345-5.143v6.209H304.056z M290.268,98.574c0-0.355-0.32-0.652-0.719-0.652
		c-0.388,0-0.697,0.297-0.697,0.652s0.321,0.637,0.709,0.637C289.937,99.211,290.268,98.93,290.268,98.574 M288.431,92.164v-0.691
		h-7.043v0.691h3.166v6.877h0.754v-6.877H288.431z M279.076,96.869c0-1.289-1.172-2-2.558-2.1c-0.608-0.041-1.594-0.041-2.247-0.061
		c-0.809-0.021-1.895-0.213-1.895-1.145c0-0.844,0.964-1.311,1.74-1.471c0.354-0.082,0.708-0.104,1.062-0.104
		c1.23,0,1.949,0.334,2.957,0.922l0.465-0.516c-1.019-0.699-2.003-1.084-3.289-1.084c-0.52,0-1.052,0.051-1.562,0.182
		c-1.084,0.273-2.126,0.943-2.126,2.078c0,1.352,1.396,1.805,2.647,1.826c0.631,0.008,1.727,0,2.181,0.041
		c0.765,0.062,1.861,0.455,1.861,1.438c0,1.371-2.06,1.635-3.167,1.635c-1.506,0-2.536-0.355-3.598-1.35l-0.521,0.498
		c0.631,0.566,1.106,0.953,1.949,1.229c0.676,0.223,1.384,0.322,2.104,0.322C276.674,99.211,279.076,98.725,279.076,96.869
		 M268.623,99.041v-0.693h-6.334V95.48h3.311v-0.689h-3.311v-2.598h6.068v-0.711h-6.811v7.559H268.623z"/>
	<path stroke="#000000" stroke-width="0.1" stroke-miterlimit="10" d="M318.558,33.553h-3.519l1.766-3.315L318.558,33.553z
		 M321.2,36.949l-4.019-7.585h-0.767l-4.051,7.585h0.844l1.454-2.705h4.24l1.455,2.705H321.2z M309.613,36.949v-7.585h-0.72
		l-3.386,5.176l-3.342-5.176h-0.744v7.585h0.744v-6.222l3.342,5.156l3.352-5.156v6.222H309.613z M297.656,33.188
		c0,1.911-1.676,3.233-3.707,3.233c-2.077,0-3.708-1.362-3.708-3.295c0-1.892,1.733-3.233,3.73-3.233
		C296.014,29.893,297.656,31.296,297.656,33.188 M298.411,33.168c0-2.309-2.021-3.957-4.484-3.957c-2.421,0-4.431,1.678-4.431,3.936
		c0,2.309,2.01,3.965,4.487,3.965C296.424,37.112,298.411,35.445,298.411,33.168 M285.771,31.521c0,0.466-0.21,0.975-0.632,1.261
		c-0.332,0.223-0.722,0.274-1.599,0.274h-3.763v-2.991h3.763c0.956,0,1.255,0.071,1.542,0.234
		C285.562,30.564,285.771,31.022,285.771,31.521 M286.527,31.55c0-0.661-0.399-1.535-1.088-1.88
		c-0.488-0.245-0.732-0.307-1.564-0.307H279v7.585h0.778v-3.202h3.607l2.087,3.202h0.878l-2.099-3.202
		c0.301-0.021,0.911-0.134,1.355-0.417C286.182,32.955,286.527,32.192,286.527,31.55"/>
	<path d="M659.208,63.909c0,7.627-6.126,12.898-13.549,12.898c-7.588,0-13.549-5.437-13.549-13.142
		c0-7.546,6.329-12.901,13.631-12.901C653.206,50.764,659.208,56.363,659.208,63.909 M661.967,63.826
		c0-9.209-7.382-15.78-16.39-15.78c-8.843,0-16.184,6.693-16.184,15.7c0,9.208,7.341,15.82,16.387,15.82
		C654.705,79.566,661.967,72.916,661.967,63.826 M622.906,78.917V48.694h-2.759v25.802l-21.339-25.802h-2.759v30.223h2.759V53.036
		l21.298,25.882H622.906z M587.452,48.694h-2.676v30.223h2.676V48.694z M576.764,73.399l-1.908-2.028
		c-3.61,3.329-7.708,5.437-12.697,5.437c-7.464,0-13.711-5.312-13.711-12.981c0-8.032,6.205-13.062,13.954-13.062
		c4.989,0,8.885,1.541,12.375,5.111l1.866-1.988c-4.097-4.218-8.641-5.882-14.484-5.882c-9.208,0-16.469,6.411-16.469,15.822
		c0,9.168,7.303,15.781,16.307,15.781C567.878,79.607,572.505,77.376,576.764,73.399 M538.081,48.694h-2.678v30.223h2.678V48.694z
		 M529.511,48.694h-3.044l-13.144,26.737l-12.982-26.737h-2.92l14.562,30.223h2.679L529.511,48.694z M490.027,65.369h-12.858
		l6.447-13.226L490.027,65.369z M499.684,78.917l-14.688-30.264h-2.798l-14.807,30.264h3.082l5.315-10.789h15.497l5.312,10.789
		H499.684z M462.944,78.917v-2.797h-19.757V48.694h-2.758v30.223H462.944z M434.472,78.917v-2.797h-19.757V48.694h-2.76v30.223
		H434.472z M396.931,65.369h-12.861l6.45-13.226L396.931,65.369z M406.584,78.917l-14.685-30.264h-2.8l-14.808,30.264h3.085
		l5.312-10.789h15.497l5.315,10.789H406.584z M370.74,57.335c0,1.867-0.651,3.976-2.312,4.99c-0.975,0.609-2.478,0.853-5.072,0.853
		h-13.387V51.454h14.726C368.63,51.454,370.74,53.36,370.74,57.335 M373.537,57.416c0-2.555-0.892-5.151-2.838-6.854
		c-1.825-1.624-3.651-1.867-6.005-1.867h-17.526v30.223h2.801V65.976h13.387c2.393,0,5.315-0.323,6.815-1.46
		C372.401,62.812,373.537,60.135,373.537,57.416"/>
	<path d="M250.384,57.255c0,1.865-0.77,3.895-2.312,5.03c-1.217,0.893-2.638,1.095-5.843,1.095h-13.752V51.454h13.752
		c3.49,0,4.585,0.283,5.64,0.933C249.614,53.442,250.384,55.266,250.384,57.255 M253.143,57.376c0-2.637-1.461-6.126-3.977-7.505
		c-1.784-0.975-2.677-1.218-5.719-1.218h-17.809v30.264h2.838V66.138h13.186l7.625,12.779h3.205l-7.667-12.779
		c1.095-0.079,3.326-0.525,4.949-1.663C251.885,62.975,253.143,59.932,253.143,57.376 M218.363,78.917v-2.76h-23.205V64.679h12.129
		V61.92h-12.129V51.534h22.23v-2.839H192.44v30.223H218.363z M182.858,78.917V48.694h-2.758v25.802l-21.34-25.802h-2.759v30.223
		h2.759V53.036l21.299,25.882H182.858z M148.789,51.413v-2.759h-25.802v2.759h11.603v27.505h2.759V51.413H148.789z M119.341,70.235
		c0-5.15-4.3-7.991-9.371-8.396c-2.232-0.163-5.842-0.163-8.236-0.244c-2.962-0.082-6.938-0.853-6.938-4.584
		c0-3.367,3.53-5.233,6.369-5.882c1.299-0.325,2.596-0.407,3.896-0.407c4.502,0,7.139,1.34,10.832,3.692l1.704-2.069
		c-3.733-2.799-7.344-4.341-12.049-4.341c-1.908,0-3.854,0.203-5.72,0.731c-3.976,1.094-7.79,3.772-7.79,8.316
		c0,5.396,5.112,7.221,9.696,7.302c2.312,0.041,6.328,0,7.992,0.163c2.798,0.243,6.815,1.825,6.815,5.76
		c0,5.478-7.546,6.531-11.603,6.531c-5.518,0-9.29-1.418-13.185-5.396l-1.907,1.987c2.312,2.272,4.057,3.816,7.14,4.911
		c2.474,0.891,5.07,1.297,7.708,1.297C110.538,79.607,119.341,77.662,119.341,70.235 M77.528,65.369h-12.86l6.45-13.226
		L77.528,65.369z M87.183,78.917L72.498,48.653h-2.8L54.891,78.917h3.082l5.315-10.789h15.497L84.1,78.917H87.183z M49.803,78.917
		L37.105,59.729l11.076-11.035h-3.854L25.786,67.112V48.694h-2.798v30.223h2.798v-7.91l9.25-9.209l11.441,17.119H49.803z"/>
	
		<rect x="285" y="76.599" fill="none" stroke="#000000" stroke-width="0.25" stroke-miterlimit="10" width="30.373" height="1.995"/>
	<g>
		<path fill="none" stroke="#000000" stroke-width="0.25" stroke-miterlimit="10" d="M300.209,58.267l0.225-0.225
			c1.304-1.305,1.935-2.181,2.121-2.976c0.326-1.346-0.41-2.731-1.346-3.669c-1.121-1.121-2.25-1.581-3.373-1.417
			c-0.877,0.127-1.752,0.634-2.618,1.5l-7.399,7.397l5.891,5.89l5.075-5.075"/>
		<path fill="none" stroke="#000000" stroke-width="0.25" stroke-miterlimit="10" d="M300.21,48.408l-0.08,0.031
			c0.789-0.321,1.637-0.483,2.506-0.424c1.731,0.102,2.771,0.897,3.954,2.078l8.805,8.804l-13.942,13.942l-1.243,1.242
			l-15.183-15.184l8.804-8.804c1.181-1.181,2.222-1.977,3.954-2.078C298.621,47.959,299.443,48.107,300.21,48.408
			c0.875,0.342,1.679,0.881,2.359,1.54c0.027,0.028,0.057,0.057,0.086,0.085c1.365,1.366,2.14,3.28,1.875,5.257
			c-0.182,1.325-1.488,2.956-2.69,4.159l-0.22,0.219 M300.21,61.079l5.094,5.094c0,0-4.187,4.188-5.096,5.095
			c-0.933-0.933-5.095-5.095-5.095-5.095s4.427-4.426,5.095-5.096c-0.025-0.025-1.628-1.629-1.628-1.629
			c-1.202-1.203-2.508-2.834-2.692-4.159c-0.264-1.977,0.511-3.891,1.875-5.257 M300.209,50.575
			c-0.333,0.217-0.665,0.49-0.998,0.823c-0.938,0.938-1.672,2.323-1.346,3.669c0.185,0.795,0.815,1.671,2.121,2.976l6.724,6.725
			l5.89-5.89l-7.398-7.397c-0.841-0.841-1.689-1.343-2.541-1.488"/>
	</g>
</g>
</svg>
